<?xml version="1.0" ?><svg viewBox="2768 1250 120 120" xmlns="http://www.w3.org/2000/svg"><defs><style>
      .cls-1 {
        fill: #2093f5;
      }

      .cls-2, .cls-3 {
        fill: #fff;
      }

      .cls-3 {
        stroke: #2093f5;
      }
    </style></defs><g data-name="Group 84" id="Group_84" transform="translate(2761 1163)"><circle class="cls-1" cx="60" cy="60" data-name="Ellipse 62" id="Ellipse_62" r="60" transform="translate(7 87)"/><g data-name="Group 83" id="Group_83" transform="translate(-144 17.232)"><g data-name="Group 82" id="Group_82" transform="translate(171 93.85)"><rect class="cls-2" data-name="Rectangle 43" height="8" id="Rectangle_43" transform="translate(0 35.582)" width="79.9"/><path class="cls-3" d="M2228.6,298.458l3.94-16.158,7.453,5.12Z" data-name="Path 178" id="Path_178" transform="translate(-2223.702 -228.17)"/><path class="cls-3" d="M1.54-.025,6.976.134A1.76,1.76,0,0,1,8.637,1.848l.127,4.5A1.532,1.532,0,0,1,7.2,7.971L1.762,7.812A1.76,1.76,0,0,1,.1,6.1l-.127-4.5A1.532,1.532,0,0,1,1.54-.025Z" data-name="Path 180" id="Path_180" transform="translate(31.099 14.271) rotate(30)"/><path class="cls-3" d="M5.9.156,7.014.124a3.587,3.587,0,0,1,3.665,3.791L9.485,47.084l-8.655.248L2.024,4.163A4.109,4.109,0,0,1,5.9.156Z" data-name="Path 181" id="Path_181" transform="matrix(0.875, -0.485, 0.485, 0.875, 31.429, 4.989)"/><path class="cls-3" d="M.362.4,9.017.155,8.8,8,.144,8.247Z" data-name="Path 182" id="Path_182" transform="matrix(0.875, -0.485, 0.485, 0.875, 54.832, 46.302)"/><path class="cls-3" d="M0,0,8.664.253,9.741,38.319l-8.664-.253Z" data-name="Path 183" id="Path_183" transform="translate(26.922 21.294) rotate(30)"/><path class="cls-3" d="M10.684,22.094A12.325,12.325,0,0,0,8,16.623c-1.647-1.853-4.916-3.068-6.194-5.255C-.788,6.922.155,4.309.155,4.309L6.539-.014a9.974,9.974,0,0,1,5.266,7.208,22.073,22.073,0,0,1,.556,6.942A34.642,34.642,0,0,1,10.684,22.094Z" data-name="Path 179" id="Path_179" transform="translate(59.589 48.908) rotate(3)"/></g></g></g></svg>